<svg width="1490" height="186" viewBox="0 0 1490 186" fill="none" xmlns="http://www.w3.org/2000/svg">
<path d="M1.90735e-06 183.148V2.85193H39.68V170.996L15.128 146.816H104.532V183.148H1.90735e-06ZM99.4422 183.148V2.85193H209.926V38.4399H126.226L138.254 29.2639V80.9719L126.226 73.1599H201.618V108.624H127.466L138.254 100.936V156.612L126.226 147.312H212.158V183.148H99.4422ZM274.654 185.628C260.849 185.628 248.408 183.479 237.33 179.18C226.336 174.799 217.738 168.061 211.538 158.968C205.338 149.875 202.486 138.26 202.982 124.124H241.422C241.588 130.076 242.828 135.16 245.142 139.376C247.457 143.592 251.094 146.816 256.054 149.048C261.014 151.197 267.462 152.272 275.398 152.272C281.846 152.272 287.137 151.611 291.27 150.288C295.404 148.965 298.421 147.023 300.322 144.46C302.306 141.815 303.298 138.591 303.298 134.788C303.298 130.572 301.976 127.1 299.33 124.372C296.685 121.561 292.51 118.957 286.806 116.56C281.185 114.163 273.91 111.435 264.982 108.376C253.905 104.408 244.192 99.9439 235.842 94.9839C227.576 90.0239 221.169 83.9479 216.622 76.7559C212.076 69.5639 209.802 60.7186 209.802 50.2199C209.802 33.8519 215.465 21.4106 226.79 12.8959C238.198 4.29861 253.657 -6.53267e-05 273.166 -6.53267e-05C286.476 -6.53267e-05 297.594 2.10793 306.522 6.32393C315.45 10.4573 322.27 16.6573 326.982 24.9239C331.777 33.1906 334.588 43.4413 335.414 55.6759H297.718C297.553 50.8813 296.52 46.8306 294.618 43.5239C292.8 40.2173 290.113 37.6959 286.558 35.9599C283.004 34.2239 278.581 33.3559 273.29 33.3559C265.272 33.3559 259.154 34.6786 254.938 37.3239C250.722 39.8866 248.614 43.9786 248.614 49.5999C248.614 53.8159 249.565 57.4119 251.466 60.3879C253.45 63.2813 256.84 66.0093 261.634 68.5719C266.429 71.1346 273.084 73.9866 281.598 77.1279C289.534 80.0213 297.14 82.8733 304.414 85.6839C311.772 88.4119 318.344 91.6773 324.13 95.4799C329.917 99.1999 334.464 103.912 337.77 109.616C341.16 115.32 342.854 122.595 342.854 131.44C342.937 149.461 336.778 163.019 324.378 172.112C311.978 181.123 295.404 185.628 274.654 185.628ZM408.245 185.628C394.439 185.628 381.998 183.479 370.921 179.18C359.926 174.799 351.329 168.061 345.129 158.968C338.929 149.875 336.077 138.26 336.573 124.124H375.013C375.178 130.076 376.418 135.16 378.733 139.376C381.047 143.592 384.685 146.816 389.645 149.048C394.605 151.197 401.053 152.272 408.989 152.272C415.437 152.272 420.727 151.611 424.861 150.288C428.994 148.965 432.011 147.023 433.913 144.46C435.897 141.815 436.889 138.591 436.889 134.788C436.889 130.572 435.566 127.1 432.921 124.372C430.275 121.561 426.101 118.957 420.397 116.56C414.775 114.163 407.501 111.435 398.573 108.376C387.495 104.408 377.782 99.9439 369.433 94.9839C361.166 90.0239 354.759 83.9479 350.213 76.7559C345.666 69.5639 343.393 60.7186 343.393 50.2199C343.393 33.8519 349.055 21.4106 360.381 12.8959C371.789 4.29861 387.247 -6.53267e-05 406.757 -6.53267e-05C420.066 -6.53267e-05 431.185 2.10793 440.113 6.32393C449.041 10.4573 455.861 16.6573 460.573 24.9239C465.367 33.1906 468.178 43.4413 469.005 55.6759H431.309C431.143 50.8813 430.11 46.8306 428.209 43.5239C426.39 40.2173 423.703 37.6959 420.149 35.9599C416.594 34.2239 412.171 33.3559 406.881 33.3559C398.862 33.3559 392.745 34.6786 388.529 37.3239C384.313 39.8866 382.205 43.9786 382.205 49.5999C382.205 53.8159 383.155 57.4119 385.057 60.3879C387.041 63.2813 390.43 66.0093 395.225 68.5719C400.019 71.1346 406.674 73.9866 415.189 77.1279C423.125 80.0213 430.73 82.8733 438.005 85.6839C445.362 88.4119 451.934 91.6773 457.721 95.4799C463.507 99.1999 468.054 103.912 471.361 109.616C474.75 115.32 476.445 122.595 476.445 131.44C476.527 149.461 470.369 163.019 457.969 172.112C445.569 181.123 428.994 185.628 408.245 185.628ZM525.212 183.148V2.85193H565.016V183.148H525.212ZM635.417 185.628C621.611 185.628 609.17 183.479 598.093 179.18C587.098 174.799 578.501 168.061 572.301 158.968C566.101 149.875 563.249 138.26 563.745 124.124H602.185C602.35 130.076 603.59 135.16 605.905 139.376C608.219 143.592 611.857 146.816 616.817 149.048C621.777 151.197 628.225 152.272 636.161 152.272C642.609 152.272 647.899 151.611 652.033 150.288C656.166 148.965 659.183 147.023 661.085 144.46C663.069 141.815 664.061 138.591 664.061 134.788C664.061 130.572 662.738 127.1 660.093 124.372C657.447 121.561 653.273 118.957 647.569 116.56C641.947 114.163 634.673 111.435 625.745 108.376C614.667 104.408 604.954 99.9439 596.605 94.9839C588.338 90.0239 581.931 83.9479 577.385 76.7559C572.838 69.5639 570.565 60.7186 570.565 50.2199C570.565 33.8519 576.227 21.4106 587.553 12.8959C598.961 4.29861 614.419 -6.53267e-05 633.929 -6.53267e-05C647.238 -6.53267e-05 658.357 2.10793 667.285 6.32393C676.213 10.4573 683.033 16.6573 687.745 24.9239C692.539 33.1906 695.35 43.4413 696.177 55.6759H658.481C658.315 50.8813 657.282 46.8306 655.381 43.5239C653.562 40.2173 650.875 37.6959 647.321 35.9599C643.766 34.2239 639.343 33.3559 634.053 33.3559C626.034 33.3559 619.917 34.6786 615.701 37.3239C611.485 39.8866 609.377 43.9786 609.377 49.5999C609.377 53.8159 610.327 57.4119 612.229 60.3879C614.213 63.2813 617.602 66.0093 622.397 68.5719C627.191 71.1346 633.846 73.9866 642.361 77.1279C650.297 80.0213 657.902 82.8733 665.177 85.6839C672.534 88.4119 679.106 91.6773 684.893 95.4799C690.679 99.1999 695.226 103.912 698.533 109.616C701.922 115.32 703.617 122.595 703.617 131.44C703.699 149.461 697.541 163.019 685.141 172.112C672.741 181.123 656.166 185.628 635.417 185.628ZM753.252 183.148V2.85193H816.12C829.842 2.85193 841.126 4.71194 849.972 8.43194C858.9 12.1519 865.513 17.3186 869.812 23.9319C874.193 30.5453 876.384 38.2333 876.384 46.9959C876.384 58.1559 873.118 67.0839 866.588 73.7799C860.14 80.4759 851.749 84.2786 841.416 85.1879C850.509 86.0973 858.114 88.2879 864.232 91.7599C870.432 95.2319 875.102 99.9853 878.244 106.02C881.468 111.972 883.08 119.329 883.08 128.092C883.08 139.665 880.476 149.585 875.268 157.852C870.06 166.036 862.496 172.319 852.576 176.7C842.738 180.999 830.793 183.148 816.74 183.148H753.252ZM791.94 150.412H814.508C824.345 150.412 831.372 148.635 835.588 145.08C839.804 141.525 841.912 135.491 841.912 126.976C841.912 120.363 840.754 115.444 838.44 112.22C836.208 108.996 832.942 106.847 828.644 105.772C824.345 104.697 819.096 104.16 812.896 104.16H791.94V150.412ZM791.94 76.1359H813.392C818.6 76.1359 822.898 75.3093 826.288 73.6559C829.76 72.0026 832.322 69.5639 833.976 66.3399C835.712 63.1159 836.58 59.1479 836.58 54.4359C836.58 47.7399 834.43 42.9039 830.132 39.9279C825.833 36.8693 819.922 35.3399 812.4 35.3399H791.94V76.1359ZM882.483 183.148V2.85193H992.967V38.4399H909.267L921.295 29.2639V80.9719L909.267 73.1599H984.659V108.624H910.507L921.295 100.936V156.612L909.267 147.312H995.199V183.148H882.483ZM1030.92 183.148V53.4439C1030.92 48.4839 1031.83 44.8879 1033.65 42.6559C1035.47 40.4239 1038.24 39.0186 1041.96 38.4399H986.406V2.85193H1114.62V38.4399H1070.35V183.148H1030.92ZM1152.4 183.148V53.4439C1152.4 48.4839 1153.31 44.8879 1155.13 42.6559C1156.95 40.4239 1159.72 39.0186 1163.44 38.4399H1107.89V2.85193H1236.1V38.4399H1191.84V183.148H1152.4ZM1233.12 183.148V2.85193H1343.61V38.4399H1259.91L1271.93 29.2639V80.9719L1259.91 73.1599H1335.3V108.624H1261.15L1271.93 100.936V156.612L1259.91 147.312H1345.84V183.148H1233.12ZM1442.92 183.148L1404.11 113.832H1385.02L1376.71 111.972L1380.3 87.1719V83.2039H1406.47C1412.25 83.2039 1416.88 82.2119 1420.36 80.2279C1423.91 78.2439 1426.47 75.4746 1428.04 71.9199C1429.61 68.2826 1430.4 64.0253 1430.4 59.1479C1430.4 53.1133 1429.33 48.5666 1427.18 45.5079C1425.03 42.4493 1422.17 40.3826 1418.62 39.3079C1415.15 38.1506 1411.26 37.5719 1406.96 37.5719L1387.25 37.4479L1378.57 23.4359L1376.58 2.85193C1379.81 2.85193 1382.83 2.85193 1385.64 2.85193C1388.53 2.85193 1392 2.85193 1396.05 2.85193C1400.1 2.85193 1405.43 2.85193 1412.05 2.85193C1423.62 2.85193 1433.79 4.7946 1442.55 8.67994C1451.4 12.5653 1458.3 18.4346 1463.26 26.2879C1468.22 34.1413 1470.7 43.9786 1470.7 55.7999C1470.7 64.9759 1468.96 73.5733 1465.49 81.5919C1462.02 89.5279 1456.61 96.0173 1449.25 101.06C1441.89 106.02 1432.38 108.748 1420.73 109.244L1425.69 107.26C1428.91 107.26 1431.89 107.549 1434.62 108.128C1437.34 108.707 1439.87 109.781 1442.18 111.352C1444.49 112.923 1446.56 115.155 1448.38 118.048L1489.42 183.148H1442.92ZM1348.06 183.148V2.85193H1387.37V183.148H1348.06Z" fill="black"/>
</svg>
